<?xml version="1.0" encoding="utf-8"?>
<!-- Generator: Adobe Illustrator 23.0.1, SVG Export Plug-In . SVG Version: 6.00 Build 0)  -->
<!DOCTYPE svg PUBLIC "-//W3C//DTD SVG 1.1//EN" "http://www.w3.org/Graphics/SVG/1.1/DTD/svg11.dtd" [
	<!ENTITY ns_extend "http://ns.adobe.com/Extensibility/1.0/">
	<!ENTITY ns_ai "http://ns.adobe.com/AdobeIllustrator/10.0/">
	<!ENTITY ns_graphs "http://ns.adobe.com/Graphs/1.0/">
	<!ENTITY ns_vars "http://ns.adobe.com/Variables/1.0/">
	<!ENTITY ns_imrep "http://ns.adobe.com/ImageReplacement/1.0/">
	<!ENTITY ns_sfw "http://ns.adobe.com/SaveForWeb/1.0/">
	<!ENTITY ns_custom "http://ns.adobe.com/GenericCustomNamespace/1.0/">
	<!ENTITY ns_adobe_xpath "http://ns.adobe.com/XPath/1.0/">
]>
<svg version="1.1" id="Layer_1" xmlns:x="&ns_extend;" xmlns:i="&ns_ai;" xmlns:graph="&ns_graphs;"
	 xmlns="http://www.w3.org/2000/svg" xmlns:xlink="http://www.w3.org/1999/xlink" x="0px" y="0px" viewBox="0 0 708.7 708.7"
	 style="enable-background:new 0 0 708.7 708.7;" xml:space="preserve">
<style type="text/css">
	.st0{fill:#95DAF8;stroke:#010101;stroke-miterlimit:10;}
</style>
<metadata>
	<sfw  xmlns="&ns_sfw;">
		<slices></slices>
		<sliceSourceBounds  bottomLeftOrigin="true" height="552" width="678.3" x="14.1" y="-627.7"></sliceSourceBounds>
	</sfw>
</metadata>
<path class="st0" d="M681.1,80.7H387c-5.1,0-9.2,7.7-9.4,17.4l-0.1,3.6c-0.1,10.1,4.2,18.3,9.4,18.2l294.2-3.6
	c5-0.1,9.1-7.7,9.3-17.3l0,0C690.5,89,686.3,80.7,681.1,80.7z"/>
<path class="st0" d="M681.5,460.1H387.4c-5.1,0-9.2,7.7-9.4,17.4L378,481c-0.1,10.1,4.2,18.3,9.4,18.2l294.1-3.6
	c5-0.1,9.1-7.7,9.3-17.3l0,0C691,468.4,686.8,460.1,681.5,460.1z"/>
<path class="st0" d="M681,333.5H386.9c-5.1,0-9.2,7.7-9.4,17.4l-0.1,3.6c-0.1,10.1,4.2,18.3,9.4,18.2l294.1-3.6
	c5-0.1,9.1-7.7,9.3-17.3l0,0C690.5,341.8,686.3,333.5,681,333.5z"/>
<path class="st0" d="M681,205.9H386.9c-5.1,0-9.2,7.7-9.4,17.4l-0.1,3.6c-0.1,10.1,4.2,18.3,9.4,18.2l294.1-3.6
	c5-0.1,9.1-7.7,9.3-17.3l0,0C690.5,214.2,686.3,205.9,681,205.9z"/>
<path class="st0" d="M682.5,586.3H388.5c-5.1,0-9.2,7.7-9.4,17.4l-0.1,3.6c-0.1,10.1,4.2,18.3,9.4,18.2l294.1-3.6
	c5-0.1,9.1-7.7,9.3-17.3l0,0C692.1,594.6,687.8,586.3,682.5,586.3z"/>
<path class="st0" d="M76.3,206.6L268.7,80.3c24.3-15.9,49.8,17.4,49.6,64.9l-0.9,422.1c-0.1,39.5-20.5,68.1-41.2,57.8L68.5,521.2
	c-31.3-15.6-53.1-67.5-53.7-127.3l-0.2-23.6C14,297,38.8,231.1,76.3,206.6z"/>
</svg>
